<svg width="35.000000" height="35.000000" viewBox="0 0 35 35" fill="none" xmlns="http://www.w3.org/2000/svg" xmlns:xlink="http://www.w3.org/1999/xlink">
	<desc>
			Created with Pixso.
	</desc>
	<defs/>
	<path id="path" d="M0.96 0.96C-0.33 2.25 -0.33 4.35 0.96 5.64L12.82 17.49L0.96 29.35C-0.33 30.64 -0.33 32.74 0.96 34.03C2.25 35.32 4.35 35.32 5.64 34.03L17.49 22.17L29.35 34.03C30.64 35.32 32.74 35.32 34.03 34.03C35.32 32.74 35.32 30.64 34.03 29.35L22.17 17.49L34.03 5.64C35.32 4.35 35.32 2.25 34.03 0.96C32.73 -0.33 30.64 -0.33 29.35 0.96L17.49 12.82L5.64 0.96C4.35 -0.33 2.25 -0.33 0.96 0.96Z" fill="#FFFFFF" fill-opacity="1.000000" fill-rule="nonzero"/>
</svg>
