<svg width="40.000000" height="44.296623" viewBox="0 0 40 44.2966" fill="none" xmlns="http://www.w3.org/2000/svg" xmlns:xlink="http://www.w3.org/1999/xlink">
	<desc>
			Created with Pixso.
	</desc>
	<defs>
		<clipPath id="clip135_110">
			<rect id="copy-svgrepo-com" width="40.000000" height="44.296623" fill="white" fill-opacity="0"/>
		</clipPath>
	</defs>
	<g clip-path="url(#clip135_110)">
		<path id="path" d="M26.66 23.8L26.66 31.56C26.66 38.02 24.33 40.6 18.5 40.6L11.5 40.6C5.66 40.6 3.33 38.02 3.33 31.56L3.33 23.8C3.33 17.34 5.66 14.76 11.5 14.76L18.5 14.76C24.33 14.76 26.66 17.34 26.66 23.8Z" fill="#5C5F62" fill-opacity="1.000000" fill-rule="nonzero"/>
		<path id="path" d="M29.06 3.9L22.06 3.9C16.92 3.9 14.51 5.92 14 10.8C13.9 11.83 14.66 12.67 15.59 12.67L19.06 12.67C26.06 12.67 29.31 16.27 29.31 24.02L29.31 27.86C29.31 28.89 30.07 29.73 30.99 29.61C35.4 29.06 37.22 26.39 37.22 20.7L37.22 12.95C37.22 6.49 34.89 3.9 29.06 3.9Z" fill="#5C5F62" fill-opacity="1.000000" fill-rule="nonzero"/>
	</g>
</svg>
