<svg width="19.215820" height="31.539673" viewBox="0 0 19.2158 31.5397" fill="none" xmlns="http://www.w3.org/2000/svg" xmlns:xlink="http://www.w3.org/1999/xlink">
	<rect id="фрейм 2" width="19.215744" height="31.539633" fill="#FFFFFF" fill-opacity="0"/>
	<path id="path" d="M7.66 0L11.49 3.05e-5C12.09 -6.11e-5 12.69 -0.01 13.13 0.07C13.62 0.16 14.1 0.36 14.49 0.89C14.88 1.42 15.02 2.05 15.09 2.68C15.15 3.27 15.14 4 15.14 4.82L15.14 7.43L13.39 7.43L13.39 4.89C13.39 3.97 13.39 3.4 13.35 2.98C13.31 2.58 13.25 2.5 13.23 2.48C13.22 2.45 13.16 2.38 12.89 2.33C12.59 2.28 12.17 2.28 11.49 2.28L7.72 2.28C7.04 2.28 6.62 2.28 6.31 2.33C6.04 2.38 5.99 2.45 5.97 2.48C5.96 2.5 5.89 2.58 5.86 2.98C5.81 3.4 5.81 3.97 5.81 4.89L5.81 7.43L4.06 7.43L4.06 4.89C4.06 4.07 4.06 3.27 4.12 2.68C4.18 2.05 4.33 1.42 4.71 0.89C5.11 0.36 5.59 0.16 6.07 0.07C6.51 -0.01 7.06 -6.11e-5 7.66 0Z" fill="#5C5F62" fill-opacity="1.000000" fill-rule="evenodd"/>
	<path id="path" d="M17.9 21.86C17.55 25.89 17.38 27.91 16.51 29.3C16.2 29.79 15.84 30.21 15.44 30.56C14.28 31.53 12.72 31.53 9.6 31.53C6.49 31.53 4.93 31.53 3.77 30.56C3.36 30.21 3 29.79 2.7 29.3C1.82 27.91 1.65 25.89 1.31 21.86L0 6.35L19.21 6.35L17.9 21.86Z" fill="#5C5F62" fill-opacity="1.000000" fill-rule="nonzero"/>
</svg>
