<svg width="40.000000" height="36.479584" viewBox="0 0 40 36.4796" fill="none" xmlns="http://www.w3.org/2000/svg" xmlns:xlink="http://www.w3.org/1999/xlink">
	<desc>
			Created with Pixso.
	</desc>
	<defs/>
	<path id="path" d="M20 0C10.57 0.01 2.34 7.52 0 18.26C2.36 28.98 10.59 36.46 20 36.47C29.42 36.46 37.65 28.95 40 18.2C37.63 7.49 29.4 0.01 20 0ZM20 6.07C25.71 6.07 30.33 11.51 30.33 18.23C30.33 24.96 25.71 30.39 20 30.39C14.28 30.39 9.66 24.96 9.66 18.23C9.66 11.51 14.28 6.07 20 6.07ZM20 12.15C17.14 12.15 14.83 14.87 14.83 18.23C14.83 21.6 17.14 24.31 20 24.31C22.85 24.31 25.16 21.6 25.16 18.23C25.16 14.87 22.85 12.15 20 12.15Z" fill="#5C5F62" fill-opacity="1.000000" fill-rule="nonzero"/>
</svg>
