<!-- icon666.com - MILLIONS vector ICONS FREE --><svg clip-rule="evenodd" fill-rule="evenodd" image-rendering="optimizeQuality" shape-rendering="geometricPrecision" text-rendering="geometricPrecision" viewBox="0 0 512 512" xmlns="http://www.w3.org/2000/svg" xmlns:xlink="http://www.w3.org/1999/xlink"><linearGradient id="id0" gradientUnits="userSpaceOnUse" x1="256" x2="256" y1="482.885" y2="29.115"><stop offset="0" stop-color="#1aa8dc"></stop><stop offset=".490196" stop-color="#ae3b89"></stop><stop offset="1" stop-color="#f26270"></stop></linearGradient><g id="Layer_x0020_1"><path d="m482 393h-452c-16 0-30-13-30-29v-27h512v27c-1 16-14 29-30 29zm-116 90h-51-1-2-2-2-1-2-2-2-2-2-1-2-2-2-2-2-2-2-1-2-2-2-2-2-2-2-2-1-2-2-2-2-2-2-2-1-2-2-2-2-2-2-1-2-2-2-2-2-1-2-2-2-1-2-2-2-1-2-2-1-2-2-1-2-2-52c-4 0-8-3-8-8 0-4 4-7 8-7h46l9-61h112l8 61h46c4 0 8 3 8 7 0 5-4 8-8 8zm-66-332v-32c0-25-20-45-44-45s-44 20-44 45v32h8v-32c0-20 16-36 35-36 20 0 36 16 36 36v32zm-103 0v-32c0-33 26-59 58-59 33 0 59 26 59 59v32h18c11 0 19 9 19 19v54c1 2 1 6 0 8-1 0-1 0-1 1-2 2-4 3-6 3-4 0-7-3-8-6l-26-19-9 4 10 3c2 0 4 2 5 4l7 17 25 11c2 1 3 4 4 6v1 29c-1 11-9 20-20 20h-111c-4-1-7-4-7-8 0-1 0-2 0-3l2-23-10-8c-2-2-3-5-2-8l4-15-10 5 4 50c0 1 1 2 1 3 0 4-4 7-8 7h-15c-11 0-19-9-19-19v-117c0-11 8-19 19-19zm80 0v-32c0-12-10-21-21-21s-21 9-21 21v32zm60 111-23-11c-2-1-3-2-4-4l-7-16-28-6c-3-1-5-3-5-7 0-3 2-6 5-7l33-14c3-1 5-1 7 1l21 14v-42c0-2-2-4-5-4h-151c-3 0-5 2-5 4v117c0 2 2 4 5 4h7l-4-49c0-2 2-5 4-7l29-15c3-2 6-2 8 0 3 2 4 5 3 8l-8 27 9 7c2 2 3 4 3 7l-2 22h103c3 0 5-2 5-5zm-337 60v-263c0-17 14-30 30-30h452c16 0 30 13 30 30v263z" fill="url(#id0)"></path></g></svg>