<svg width="35.000000" height="35.000000" viewBox="0 0 35 35" fill="none" xmlns="http://www.w3.org/2000/svg" xmlns:xlink="http://www.w3.org/1999/xlink">
	<desc>
			Created with Pixso.
	</desc>
	<defs/>
	<rect id="фрейм 1" width="32.000000" height="32.000000" transform="translate(1.500000 1.500000)" fill="#FFFFFF" fill-opacity="0"/>
	<path id="Vector 1" d="M17.92 1.5L17.92 3.41C17.92 4.68 17.92 5.48 17.92 5.79C17.92 6.11 17.92 6.43 17.92 6.75C17.92 7.07 17.92 7.39 17.92 7.7C17.92 8.02 17.92 8.34 17.92 8.66C17.92 8.98 17.92 9.46 17.92 10.09C17.92 10.73 17.92 11.21 17.92 11.52C17.92 11.84 17.92 12.32 17.92 12.96C17.92 13.59 17.92 14.07 17.92 14.39C17.92 14.71 17.92 15.19 17.92 15.82C17.92 16.46 17.92 16.94 17.92 17.26C17.92 17.57 17.92 17.89 17.92 18.21C17.92 18.53 17.92 18.85 17.92 19.17C17.92 19.49 17.92 19.8 17.92 20.12C17.92 20.44 17.92 20.76 17.92 21.08C17.92 21.4 17.92 21.71 17.92 22.03C17.92 22.35 17.92 22.67 17.92 22.99C17.92 23.31 17.92 23.62 17.92 23.94C17.92 24.26 17.92 24.58 17.92 24.9C17.92 25.22 17.92 25.53 17.92 25.85C17.92 26.17 17.92 26.65 17.92 27.29C17.92 27.92 17.92 28.56 17.92 29.2C17.92 29.83 17.92 30.31 17.92 30.63C17.92 30.95 17.92 31.27 17.92 31.58C17.92 31.9 17.92 32.22 17.92 32.54C17.92 32.86 17.92 33.18 17.92 33.5" stroke="#FFFFFF" stroke-opacity="1.000000" stroke-width="3.000000" stroke-linecap="round"/>
	<path id="Vector 2" d="M1.5 18.43L3.35 18.43C4.59 18.43 5.82 18.43 7.06 18.43C8.3 18.43 9.22 18.43 9.84 18.43C10.46 18.43 10.92 18.43 11.23 18.43C11.54 18.43 11.85 18.43 12.16 18.43C12.47 18.43 12.93 18.43 13.55 18.43C14.17 18.43 14.79 18.43 15.41 18.43C16.03 18.43 16.8 18.43 17.73 18.43C18.65 18.43 19.43 18.43 20.05 18.43C20.66 18.43 21.13 18.43 21.44 18.43C21.75 18.43 22.21 18.43 22.83 18.43C23.45 18.43 23.91 18.43 24.22 18.43C24.53 18.43 24.99 18.43 25.61 18.43C26.23 18.43 26.69 18.43 27 18.43C27.31 18.43 27.62 18.43 27.93 18.43C28.24 18.43 28.55 18.43 28.86 18.43C29.17 18.43 29.48 18.43 29.78 18.43C30.09 18.43 30.4 18.43 30.71 18.43C31.02 18.43 31.33 18.43 31.64 18.43C31.95 18.43 32.26 18.43 32.57 18.43C32.88 18.43 33.19 18.43 33.5 18.43" stroke="#FFFFFF" stroke-opacity="1.000000" stroke-width="3.000000" stroke-linecap="round"/>
</svg>
