<svg width="28.000000" height="36.479584" viewBox="0 0 28 36.4796" fill="none" xmlns="http://www.w3.org/2000/svg" xmlns:xlink="http://www.w3.org/1999/xlink">
	<desc>
			Created with Pixso.
	</desc>
	<defs>
		<clipPath id="clip135_97">
			<rect id="delete-3-svgrepo-com (1)" width="28.000000" height="36.479572" fill="white" fill-opacity="0"/>
		</clipPath>
	</defs>
	<g clip-path="url(#clip135_97)">
		<path id="path" d="M12.06 1.89L15.88 1.89C16.49 1.89 17.09 1.89 17.53 1.97C18.01 2.06 18.49 2.26 18.88 2.79C19.27 3.32 19.42 3.95 19.48 4.58C19.54 5.17 19.54 5.9 19.54 6.72L19.54 9.33L17.79 9.33L17.79 6.79C17.79 5.87 17.79 5.3 17.74 4.88C17.7 4.48 17.64 4.4 17.62 4.38C17.61 4.35 17.55 4.28 17.28 4.23C16.98 4.18 16.56 4.17 15.88 4.17L12.11 4.17C11.43 4.17 11.01 4.18 10.71 4.23C10.44 4.28 10.38 4.35 10.37 4.38C10.35 4.4 10.29 4.48 10.25 4.88C10.21 5.3 10.2 5.87 10.2 6.79L10.2 9.33L8.45 9.33L8.45 6.79C8.45 5.97 8.45 5.17 8.51 4.58C8.57 3.95 8.72 3.32 9.11 2.79C9.5 2.26 9.98 2.06 10.46 1.97C10.9 1.89 11.45 1.89 12.06 1.89Z" fill="#5C5F62" fill-opacity="1.000000" fill-rule="evenodd"/>
		<path id="path" d="M22.29 23.76C21.95 27.79 21.77 29.81 20.9 31.2C20.59 31.69 20.23 32.11 19.83 32.46C18.67 33.43 17.11 33.43 14 33.43C10.88 33.43 9.32 33.43 8.16 32.46C7.76 32.11 7.39 31.69 7.09 31.2C6.21 29.81 6.04 27.79 5.7 23.76L4.39 8.25L23.6 8.25L22.29 23.76Z" fill="#5C5F62" fill-opacity="1.000000" fill-rule="nonzero"/>
		<path id="path" d="M2.62 9.3C2.62 8.67 3.01 8.16 3.5 8.16L24.5 8.16C24.98 8.16 25.37 8.67 25.37 9.3C25.37 9.93 24.98 10.44 24.5 10.44L3.5 10.44C3.01 10.44 2.62 9.93 2.62 9.3Z" fill="#5C5F62" fill-opacity="1.000000" fill-rule="evenodd"/>
	</g>
</svg>
